<?xml version="1.0" encoding="UTF-8" standalone="no"?>
<!-- Generator: Adobe Illustrator 22.0.1, SVG Export Plug-In . SVG Version: 6.00 Build 0)  -->

<svg
   version="1.1"
   id="Layer_1"
   x="0px"
   y="0px"
   viewBox="0 20 211.2991 57.600001"
   width="120px"
   height="30px"
   xml:space="preserve"
   sodipodi:docname="logo.svg"
   xmlns:inkscape="http://www.inkscape.org/namespaces/inkscape"
   xmlns:sodipodi="http://sodipodi.sourceforge.net/DTD/sodipodi-0.dtd"
   xmlns="http://www.w3.org/2000/svg"
   xmlns:svg="http://www.w3.org/2000/svg"><defs
   id="defs437" /><sodipodi:namedview
   id="namedview435"
   pagecolor="#ffffff"
   bordercolor="#666666"
   borderopacity="1.0"
   inkscape:showpageshadow="2"
   inkscape:pageopacity="0.0"
   inkscape:pagecheckerboard="0"
   inkscape:deskcolor="#d1d1d1"
   showgrid="false" />
<style
   type="text/css"
   id="style418">
	.st0{fill:#f0f0f0;}
</style>
<g
   id="g432"
   transform="translate(-37.362499,-23.200001)">
	<path
   class="st0"
   d="m 34.2,100.8 h 66.5 L 86.5,76.2 v -8.4 l 3.9,-5.1 H 78.6 L 67.4,43.2 56.2,62.7 H 44.4 l 3.9,5.1 v 8.4 z M 48.4,97.4 H 40 l 8.4,-14.5 z m 5.7,0 H 51.7 V 77.6 h 2.4 z m 0,-23.1 h -2.4 v -2.4 h 2.4 z M 65.7,97.4 H 57.5 V 77.6 h 8.2 z m 11.6,0 H 69.1 V 77.6 h 8.2 z m 0,-23.1 H 57.5 v -2.4 h 19.8 z m 5.8,23.1 H 80.7 V 77.6 h 2.4 z m 0,-23.1 h -2.4 v -2.4 h 2.4 z m 3.4,8.6 8.4,14.5 h -8.4 z m -19.1,-33 7.4,12.7 H 60 Z M 83.6,66 83.1,66.7 v 1.8 H 51.7 V 66.7 L 51.2,66 Z"
   id="path420" />
	<g
   id="g430">
		<polygon
   class="st0"
   points="227.5,86 250.2,86 246.7,80 233.5,80 233.5,57.2 227.5,60.7 "
   id="polygon422" />
		<path
   class="st0"
   d="m 207.5,74.2 v 0 0 c 0,3.6 -2.9,6.5 -6.5,6.5 -3.6,0 -6.5,-2.9 -6.5,-6.5 v 0 0 -17 l -6,3.5 v 13.5 0 c 0,6.9 5.6,12.5 12.5,12.5 6.9,0 12.5,-5.6 12.5,-12.5 v 0 -17 l -6,3.5 z"
   id="path424" />
		<path
   class="st0"
   d="m 168.4,74.2 v 0 0 c 0,3.6 -2.9,6.5 -6.5,6.5 -3.6,0 -6.5,-2.9 -6.5,-6.5 v 0 0 -17 l -6,3.5 v 13.5 0 c 0,6.9 5.6,12.5 12.5,12.5 6.9,0 12.5,-5.6 12.5,-12.5 v 0 -17 l -6,3.5 z"
   id="path426" />
		<polygon
   class="st0"
   points="110.4,86 131.9,86 135.4,80 120.8,80 133.9,57.2 113.8,57.2 110.4,63.3 123.5,63.3 "
   id="polygon428" />
	</g>
</g>
</svg>
