<?xml version="1.0" encoding="UTF-8" standalone="no"?>
<svg
   xmlns:dc="http://purl.org/dc/elements/1.1/"
   xmlns:cc="http://creativecommons.org/ns#"
   xmlns:rdf="http://www.w3.org/1999/02/22-rdf-syntax-ns#"
   xmlns:svg="http://www.w3.org/2000/svg"
   xmlns="http://www.w3.org/2000/svg"
   xmlns:sodipodi="http://sodipodi.sourceforge.net/DTD/sodipodi-0.dtd"
   xmlns:inkscape="http://www.inkscape.org/namespaces/inkscape"
   version="1.1"
   id="Layer_1"
   x="0px"
   y="0px"
   viewBox="0 0 144 144"
   style="enable-background:new 0 0 144 144;"
   xml:space="preserve"
   sodipodi:docname="logo.compact.svg"
   inkscape:version="1.0.1 (3bc2e813f5, 2020-09-07)"><metadata
   id="metadata21"><rdf:RDF><cc:Work
       rdf:about=""><dc:format>image/svg+xml</dc:format><dc:type
         rdf:resource="http://purl.org/dc/dcmitype/StillImage" /></cc:Work></rdf:RDF></metadata><defs
   id="defs19"><filter
     style="color-interpolation-filters:sRGB;"
     inkscape:label="Drop Shadow"
     id="filter33"><feFlood
       flood-opacity="0.498039"
       flood-color="rgb(0,0,0)"
       result="flood"
       id="feFlood23" /><feComposite
       in="flood"
       in2="SourceGraphic"
       operator="in"
       result="composite1"
       id="feComposite25" /><feGaussianBlur
       in="composite1"
       stdDeviation="3"
       result="blur"
       id="feGaussianBlur27" /><feOffset
       dx="6"
       dy="6"
       result="offset"
       id="feOffset29" /><feComposite
       in="SourceGraphic"
       in2="offset"
       operator="over"
       result="composite2"
       id="feComposite31" /></filter></defs><sodipodi:namedview
   pagecolor="#ffffff"
   bordercolor="#666666"
   borderopacity="1"
   objecttolerance="10"
   gridtolerance="10"
   guidetolerance="10"
   inkscape:pageopacity="0"
   inkscape:pageshadow="2"
   inkscape:window-width="1533"
   inkscape:window-height="890"
   id="namedview17"
   showgrid="false"
   inkscape:zoom="5.3472222"
   inkscape:cx="72"
   inkscape:cy="72"
   inkscape:window-x="0"
   inkscape:window-y="31"
   inkscape:window-maximized="0"
   inkscape:current-layer="Layer_1" />
<style
   type="text/css"
   id="style2">
	.st0{fill:#071D49;}
</style>
<g
   id="g14"
   style="fill:#ffffff;filter:url(#filter33)"
   transform="matrix(0.81597899,0,0,0.82087542,13.249514,12.905927)">
	<path
   class="st0"
   d="M 12.8,102.6 H 131.3 L 106,58.8 v -15 l 7,-9.2 H 92 L 72,0 52,34.7 H 31.1 l 7,9.2 v 15 z M 38,96.6 H 23.1 L 38,70.8 Z m 10.4,0 H 44 V 61.3 h 4.3 v 35.3 z m 0,-41.3 H 44 V 51 h 4.3 v 4.3 z M 69,96.6 H 54.3 V 61.3 H 69 Z m 20.7,0 H 75 V 61.3 h 14.7 z m 0,-41.3 H 54.3 V 51 h 35.3 v 4.3 z M 100,96.6 H 95.7 V 61.3 h 4.3 z m 0,-41.3 H 95.7 V 51 h 4.3 z m 6,15.5 14.9,25.8 H 106 Z M 72,12 85.1,34.7 H 58.9 Z m 28.9,28.7 -0.9,1.2 V 45 H 44 v -3.2 l -0.9,-1.2 h 57.8 z"
   id="path4"
   style="fill:#ffffff" />
	<polygon
   class="st0"
   points="125.1,137.3 125.1,114.6 119.1,118.1 119.1,137.3 119.1,139.6 119.1,143.3 141.6,143.3 138.2,137.3 "
   id="polygon6"
   style="fill:#ffffff" />
	<path
   class="st0"
   d="m 99.1,131.5 v 0 0 c 0,3.6 -2.9,6.5 -6.5,6.5 -3.6,0 -6.5,-2.9 -6.5,-6.5 v 0 0 -16.9 l -6,3.5 v 13.5 0 c 0,6.9 5.6,12.5 12.5,12.5 6.9,0 12.5,-5.6 12.5,-12.5 v 0 -16.9 l -6,3.5 z"
   id="path8"
   style="fill:#ffffff" />
	<path
   class="st0"
   d="m 60.2,131.5 v 0 0 c 0,3.6 -2.9,6.5 -6.5,6.5 -3.6,0 -6.5,-2.9 -6.5,-6.5 v 0 0 -16.9 l -6,3.5 v 13.5 0 c 0,6.9 5.6,12.5 12.5,12.5 6.9,0 12.5,-5.6 12.5,-12.5 v 0 -16.9 l -6,3.5 z"
   id="path10"
   style="fill:#ffffff" />
	<polygon
   class="st0"
   points="25.4,114.6 18.9,114.6 5.8,114.6 2.4,120.6 15.5,120.6 2.4,143.3 23.8,143.3 27.3,137.3 12.7,137.3 25.8,114.6 "
   id="polygon12"
   style="fill:#ffffff" />
</g>
</svg>
